<?xml version="1.0" standalone="no"?>
<svg xmlns="http://www.w3.org/2000/svg" viewBox="0 0 124.752 24.36" width="124.752" height="24.36">
    <g fill="#17a7eb" color="#17a7eb" transform="translate(0, 0) scale(0.58)">
        <svg width="50.0" height="42.0" x="0.0" y="0.0" viewBox="0 0 50 42">
            <path fill="currentColor" fill-rule="nonzero"
                  d="M21.3 13.56l5.81 12.46-10.95-2.3-5.81-12.46 10.95 2.3zm20.86-9.73l5.81 12.46-10.95-2.3-5.81-12.46 10.95 2.3zm-8.91 36.83L8.44 36.19 16 24.99l12.1 2.54c.05.01.09.01.13.01.09 0 .18-.02.27-.06.01 0 .01-.01.01-.01.03-.01.05-.04.08-.06.03-.02.05-.05.08-.07.03-.03.07-.05.09-.08l8.11-12.01 11.19 2.35-14.81 23.06zm16.45-23.3c.01-.02.02-.03.03-.05.01-.05-.02-.08-.03-.13 0-.07.01-.13-.02-.2-.01-.02.01-.05-.01-.07L43.19 3c-.01-.02-.03-.02-.03-.03-.04-.07-.11-.11-.18-.16-.07-.05-.12-.11-.2-.14-.02-.01-.02-.02-.04-.03L30.22.01c-.04-.01-.08.03-.13.03-.07 0-.13 0-.19.02-.03.01-.06-.01-.08 0-.01.01-.02.03-.03.03-.05.03-.08.07-.12.12-.03.03-.08.03-.11.07l-8.11 12.01-12.1-2.54c-.05-.01-.08.02-.13.02-.07 0-.12 0-.19.02-.03.01-.06-.01-.08.01-.02.01-.02.03-.03.03-.05.03-.08.07-.12.12-.03.03-.08.03-.11.07L.34 22.37c-.02.02 0 .05-.02.08-.04.08-.04.15-.05.23-.01.08-.02.16.01.24.02.03 0 .05.01.08l6.49 13.91c.01.02.03.03.05.05.02.04.04.06.07.09.03.03.05.06.08.08.01.01.01.03.02.04 0 0 .01 0 .01.01.05.03.11.04.17.05.03.01.04.04.06.04l26.2 4.72a.61.61 0 0 0 .48-.12c.03-.02.05-.05.08-.07.03-.03.07-.05.1-.09l15.54-24.18c.02-.02 0-.05.01-.07.02-.04.03-.07.05-.1z"/>
        </svg>
    </g>
    <line x1="41" y1="1" x2="41" y2="23.36" stroke="#FFFFFF" stroke-linecap="round"/>
    <path fill="#FFFFFF" fill-rule="nonzero"
          d="M9.05 18L0 18L0 0.29L3.50 0L3.50 15.19L9.41 15.19L9.05 18ZM15.43 18.31Q13.01 18.31 11.70 16.39Q10.39 14.47 10.39 11.28L10.39 11.28Q10.39 8.11 11.69 6.22Q12.98 4.32 15.43 4.32L15.43 4.32Q17.86 4.32 19.19 6.22Q20.52 8.11 20.52 11.28L20.52 11.28Q20.52 14.45 19.19 16.38Q17.86 18.31 15.43 18.31L15.43 18.31ZM15.43 15.82Q16.51 15.82 16.82 14.50Q17.14 13.18 17.14 11.26L17.14 11.26Q17.14 9.34 16.82 8.02Q16.51 6.70 15.43 6.70L15.43 6.70Q14.35 6.70 14.06 7.94Q13.78 9.19 13.78 10.99L13.78 10.99Q13.78 13.20 14.06 14.51Q14.35 15.82 15.43 15.82L15.43 15.82ZM22.80 18.14L22.80 4.78L26.16 4.49L26.16 6.67Q26.88 5.64 27.95 5.00Q29.02 4.37 30.67 4.37L30.67 4.37L30.67 7.66Q29.81 7.66 28.40 7.96Q27 8.26 26.16 9L26.16 9L26.16 17.86L22.80 18.14ZM36.79 18.31Q34.39 18.31 33.12 16.40Q31.85 14.50 31.85 11.33L31.85 11.33Q31.85 8.11 33.14 6.22Q34.44 4.32 36.91 4.32L36.91 4.32Q39.26 4.32 40.51 6.22Q41.76 8.11 41.76 11.33L41.76 11.33Q41.76 11.52 41.69 11.60Q41.62 11.69 41.62 11.71L41.62 11.71L35.21 11.71Q35.21 13.27 35.62 14.56Q36.02 15.84 36.86 15.84L36.86 15.84Q37.80 15.84 38.26 14.76Q38.71 13.68 38.74 13.63L38.74 13.63L41.28 14.59Q40.78 16.32 39.67 17.32Q38.57 18.31 36.79 18.31L36.79 18.31ZM35.21 9.77L38.45 9.77Q38.45 8.33 38.06 7.49Q37.68 6.65 36.86 6.65L36.86 6.65Q36.46 6.65 36.07 7.06Q35.69 7.46 35.45 8.18Q35.21 8.90 35.21 9.77L35.21 9.77ZM50.42 12.38L43.68 12.38L43.68 9.58L50.42 9.58L50.42 12.38ZM62.50 18L53.45 18L53.45 0.29L56.95 0L56.95 15.19L62.86 15.19L62.50 18ZM68.78 18.31Q66.38 18.31 65.11 16.40Q63.84 14.50 63.84 11.33L63.84 11.33Q63.84 8.11 65.14 6.22Q66.43 4.32 68.90 4.32L68.90 4.32Q71.26 4.32 72.50 6.22Q73.75 8.11 73.75 11.33L73.75 11.33Q73.75 11.52 73.68 11.60Q73.61 11.69 73.61 11.71L73.61 11.71L67.20 11.71Q67.20 13.27 67.61 14.56Q68.02 15.84 68.86 15.84L68.86 15.84Q69.79 15.84 70.25 14.76Q70.70 13.68 70.73 13.63L70.73 13.63L73.27 14.59Q72.77 16.32 71.66 17.32Q70.56 18.31 68.78 18.31L68.78 18.31ZM67.20 9.77L70.44 9.77Q70.44 8.33 70.06 7.49Q69.67 6.65 68.86 6.65L68.86 6.65Q68.45 6.65 68.06 7.06Q67.68 7.46 67.44 8.18Q67.20 8.90 67.20 9.77L67.20 9.77Z"
          transform="translate(51, 3.18)"/>
</svg>